<svg id="Capa_1" enable-background="new 0 0 512 512" height="512" viewBox="0 0 512 512" width="512" xmlns="http://www.w3.org/2000/svg"><g><g><g><g id="XMLID_294_"><g><path d="m468 370.835c2.5 2.77-468-.008-468-.008v-173.53l38 .008 183.23 20.75c30.67 10.23 60.14 24.17 87.72 41.6 0 0 156.56 108.41 159.05 111.18z" fill="#68ca44"/></g></g></g><path d="m362.201 438.055c-17.66-6.077-37.074-19.917-59.354-42.313l-55.035-55.316v125.829h116.817l4.317-25.886z" fill="#4fc123"/><g><g id="XMLID_292_"><g><path d="m512 296.495v169.76h-392.7v-114.95l90.749-7.96 6.072-.54c27.279-2.42 53.861-9.92 78.332-22.1l11.083-5.52 52.326-24.31c9.689-3.42 19.479-7.44 29.755-8.03 1.344-.077 30.501-1.237 47.877-1.926 10.687-.424 21.395.342 31.872 2.495 9.377 1.928 18.631 4.515 27.691 7.75z" fill="#80d261"/></g></g></g><path d="m364.078 454.557-6.757-2.318c-19.878-6.84-41.174-21.859-65.106-45.917l-64.535-64.863c-3.837.546-7.689 1.003-11.558 1.347l-6.072.54-90.749 7.96v114.95h242.827z" fill="#68ca44"/><path d="m413.544 313.852c-15.833 0-28.669-12.835-28.669-28.669v-39.143c0-15.833 12.835-28.669 28.669-28.669 15.833 0 28.669 12.835 28.669 28.669v39.143c0 15.833-12.835 28.669-28.669 28.669z" fill="#57be92"/><path d="m398.86 287.286v-39.143c0-14.873 11.326-27.098 25.823-28.527-3.424-1.445-7.188-2.245-11.138-2.245-15.833 0-28.669 12.836-28.669 28.669v39.143c0 15.833 12.835 28.669 28.669 28.669.961 0 1.91-.049 2.846-.142-10.301-4.347-17.531-14.541-17.531-26.424z" fill="#22b27f"/><g><path d="m413.544 360.536c-4.142 0-7.5-3.358-7.5-7.5v-67.184c0-4.142 3.358-7.5 7.5-7.5s7.5 3.358 7.5 7.5v67.184c0 4.142-3.358 7.5-7.5 7.5z" fill="#dc8758"/></g><g id="XMLID_293_"><g><path d="m330.035 326.497c-14.018 0-25.383-11.364-25.383-25.382v-34.656c0-14.018 11.364-25.382 25.382-25.382 14.018 0 25.382 11.364 25.382 25.382v34.656c.001 14.018-11.363 25.382-25.381 25.382z" fill="#99d5b9"/><path d="m317.807 307.224v-34.655c0-14.018 11.364-25.382 25.382-25.382 1.243 0 2.464.094 3.66.266-4.478-3.965-10.363-6.376-16.815-6.376-14.018 0-25.382 11.364-25.382 25.382v34.655c0 12.775 9.439 23.342 21.723 25.116-5.253-4.65-8.568-11.439-8.568-19.006z" fill="#7acaa6"/><g><path d="m330.035 395.719c-4.142 0-7.5-3.358-7.5-7.5v-83.392c0-4.142 3.358-7.5 7.5-7.5s7.5 3.358 7.5 7.5v83.392c0 4.143-3.358 7.5-7.5 7.5z" fill="#dc8758"/></g><path d="m512 355.557v59.083l-20.79-6.225c-28.85-10.41-59.7-14.09-90.18-10.75-11.93 1.3-23.69 3.67-35.16 7.06-11.46 3.39-22.62 7.8-33.34 13.19l-30.02 15.09s-52.65 30.26-81.85 33.25h-9.59-91.77v-61.52l139.13-12.53c11.75-3.57 23.21-8.14 34.23-13.68l39.87-20.05c10.72-5.39 21.88-9.8 33.34-13.19 11.47-3.39 23.23-5.76 35.16-7.06 30.48-3.33 61.33.35 90.18 10.76z" fill="#80d261"/><path d="m491.21 348.985c-28.85-10.41-59.7-14.09-90.18-10.76-11.93 1.3-23.69 3.67-35.16 7.06-11.46 3.39-22.62 7.8-33.34 13.19l-39.87 20.05c-11.02 5.54-22.48 10.11-34.23 13.68l-139.13 12.53v61.52 2.49h101.36 116.875 174.465v-54.105-59.083z" fill="#97da7b"/></g></g><g id="XMLID_289_"><g id="XMLID_144_"><g><path d="m219.4 146.664v79.122c0 22.423-18.269 40.599-40.806 40.599s-40.806-18.176-40.806-40.599v-79.122c0-22.423 18.269-40.599 40.806-40.599 11.269 0 21.472 4.542 28.856 11.889 7.385 7.347 11.95 17.499 11.95 28.71z" fill="#99d5b9"/></g></g></g><path d="m161.657 228.356v-79.122c0-19.794 14.24-36.27 33.082-39.863-4.952-2.124-10.409-3.306-16.145-3.306-22.537 0-40.806 18.176-40.806 40.599v79.122c0 22.423 18.269 40.599 40.806 40.599 2.643 0 5.224-.259 7.726-.736-14.507-6.225-24.663-20.576-24.663-37.293z" fill="#7acaa6"/><g id="XMLID_288_"><g><path d="m150.62 99.565v109.74c0 31.1-25.21 56.31-56.31 56.31s-56.31-25.21-56.31-56.31v-109.74c0-31.1 25.21-56.31 56.31-56.31 15.55 0 29.63 6.3 39.82 16.49s16.49 24.27 16.49 39.82z" fill="#57be92"/></g></g><path d="m70.246 220.788v-109.74c0-31.1 25.21-56.31 56.31-56.31.633 0 1.26.027 1.889.048-9.471-7.23-21.299-11.531-34.134-11.531-31.1 0-56.31 25.21-56.31 56.31v109.74c0 30.468 24.201 55.267 54.427 56.262-13.479-10.288-22.182-26.513-22.182-44.779z" fill="#22b27f"/><g><path d="m94.315 173.652c-2.425 0-4.805-1.174-6.25-3.344-2.296-3.448-1.362-8.104 2.086-10.399l13.425-8.938c3.447-2.296 8.104-1.362 10.399 2.086 2.296 3.448 1.362 8.104-2.086 10.399l-13.425 8.938c-1.277.851-2.72 1.258-4.149 1.258z" fill="#dc8758"/></g><g><path d="m94.309 300.319c-4.142 0-7.5-3.358-7.5-7.5v-156.835c0-4.142 3.358-7.5 7.5-7.5s7.5 3.358 7.5 7.5v156.835c0 4.142-3.358 7.5-7.5 7.5z" fill="#dc8758"/></g><g><path d="m178.798 356.48c-4.142 0-7.5-3.358-7.5-7.5v-113.03c0-4.142 3.358-7.5 7.5-7.5s7.5 3.358 7.5 7.5v113.03c0 4.142-3.358 7.5-7.5 7.5z" fill="#dc8758"/></g><g id="XMLID_291_"><g><path d="m359.21 468.745h-359.21v-175.819l92.32-.111c42.16 0 82.62 16.889 112.56 46.995l76.7 77.091c19.98 20.084 44.21 40.351 70.86 49.521z" fill="#ade194"/></g></g></g><path d="m450.584 44.077h-91.384c-10.427 0-18.88 8.453-18.88 18.88 0 3.679 1.057 7.108 2.881 10.006 1.438 2.286-.173 5.256-2.874 5.256h-28.048c-10.237 0-18.956 7.961-19.32 18.191-.382 10.741 8.212 19.568 18.867 19.568h90.887c10.582 0 19.572-8.66 19.374-19.24-.066-3.533-1.107-6.824-2.863-9.623-1.441-2.298.149-5.279 2.861-5.279h28.498c10.427 0 18.88-8.453 18.88-18.88.001-10.426-8.452-18.879-18.879-18.879z" fill="#dff6fd"/><path d="m331.122 110.352c.33-10.257 9.06-18.256 19.322-18.256h15.221c7.597 0 13.321-6.51 12.856-14.093-.024-.387-.036-.776-.036-1.169 0-10.427 8.453-18.88 18.88-18.88h71.408c-2.195-7.996-9.496-13.878-18.188-13.878h-91.385c-10.427 0-18.88 8.453-18.88 18.88 0 3.679 1.057 7.108 2.881 10.006 1.438 2.286-.173 5.256-2.874 5.256h-28.047c-10.237 0-18.956 7.961-19.32 18.191-.382 10.741 8.212 19.568 18.867 19.568h19.96c-.489-1.783-.728-3.671-.665-5.625z" fill="#c8effe"/></g></svg>